<?xml version="1.0" standalone="no"?>
<!DOCTYPE svg PUBLIC "-//W3C//DTD SVG 20010904//EN"
 "http://www.w3.org/TR/2001/REC-SVG-20010904/DTD/svg10.dtd">
<svg version="1.0" xmlns="http://www.w3.org/2000/svg"
 width="1358.000000pt" height="770.000000pt" viewBox="0 0 1358.000000 770.000000"
 preserveAspectRatio="xMidYMid meet">

<g transform="translate(0.000000,770.000000) scale(0.100000,-0.100000)"
fill="#000000" stroke="none">
<path d="M4620 6001 c-119 -18 -299 -98 -403 -179 -281 -220 -392 -630 -260
-962 92 -229 287 -416 512 -489 105 -34 186 -44 311 -38 179 8 329 63 471 173
212 163 348 466 324 724 -14 152 -59 280 -141 405 -147 223 -384 358 -647 369
-62 3 -137 1 -167 -3z"/>
<path d="M7845 6000 c-159 -22 -357 -124 -472 -242 -106 -109 -172 -227 -219
-393 -26 -90 -23 -296 5 -397 77 -283 277 -501 543 -592 297 -101 638 -20 850
202 111 116 203 290 230 431 5 31 8 117 6 191 -6 153 -31 252 -95 370 -164
301 -512 478 -848 430z"/>
<path d="M11564 4950 c-104 -22 -225 -118 -258 -205 -18 -49 -36 -162 -46
-300 -6 -82 -15 -174 -20 -202 -5 -29 -17 -178 -25 -330 -9 -153 -21 -283 -27
-290 -8 -11 -942 -13 -4713 -13 -4109 0 -4704 2 -4715 15 -6 8 -16 47 -21 87
-17 131 -29 211 -48 333 -10 66 -26 170 -35 230 -9 61 -21 130 -26 155 -6 25
-15 83 -20 130 -17 135 -43 200 -107 263 -98 99 -226 137 -348 103 -86 -24
-125 -45 -178 -99 -77 -77 -107 -145 -107 -243 0 -43 5 -106 11 -139 11 -62
33 -200 67 -417 11 -69 23 -135 26 -145 3 -10 12 -78 20 -151 8 -73 17 -136
20 -141 3 -5 13 -111 22 -237 23 -316 8 -947 -27 -1119 -5 -28 -10 -104 -12
-170 -1 -111 0 -124 25 -175 40 -83 99 -144 176 -182 61 -30 74 -33 162 -33
83 0 102 3 150 27 63 31 139 101 162 150 40 81 46 120 63 348 9 129 21 294 26
365 5 72 12 172 15 223 l6 92 4718 0 4718 0 11 -67 c6 -38 18 -124 26 -193 8
-69 20 -145 25 -170 5 -25 15 -94 21 -155 6 -60 13 -113 15 -117 3 -4 11 -59
20 -124 23 -175 78 -265 199 -325 130 -64 274 -45 391 50 113 91 142 202 110
416 -8 55 -21 154 -30 220 -9 66 -21 147 -27 179 -6 33 -19 134 -30 225 -11
91 -25 209 -31 261 -15 122 -15 704 0 835 30 269 44 379 59 475 10 58 17 150
17 205 0 88 -4 106 -27 151 -82 158 -241 239 -403 204z"/>
</g>
</svg>
